<?xml version="1.0" encoding="UTF-8" standalone="no"?>
<!-- Created with Inkscape (http://www.inkscape.org/) -->

<svg
   xmlns:dc="http://purl.org/dc/elements/1.1/"
   xmlns:cc="http://creativecommons.org/ns#"
   xmlns:rdf="http://www.w3.org/1999/02/22-rdf-syntax-ns#"
   xmlns:svg="http://www.w3.org/2000/svg"
   xmlns="http://www.w3.org/2000/svg"
   xmlns:sodipodi="http://sodipodi.sourceforge.net/DTD/sodipodi-0.dtd"
   xmlns:inkscape="http://www.inkscape.org/namespaces/inkscape"
   width="297.8772"
   height="80.681252"
   viewBox="0 0 78.813345 21.346915"
   version="1.1"
   id="svg8"
   inkscape:version="0.92.5 (2060ec1f9f, 2020-04-08)"
   sodipodi:docname="logo_2.svg"
   inkscape:export-filename="/home/mpatro/projects/copier-cpp-cmake/website/static/img/logo.png"
   inkscape:export-xdpi="91.427238"
   inkscape:export-ydpi="91.427238">
  <defs
     id="defs2" />
  <sodipodi:namedview
     id="base"
     pagecolor="#ffffff"
     bordercolor="#666666"
     borderopacity="1.0"
     inkscape:pageopacity="0.0"
     inkscape:pageshadow="2"
     inkscape:zoom="3.959798"
     inkscape:cx="186.27025"
     inkscape:cy="33.473007"
     inkscape:document-units="px"
     inkscape:current-layer="layer2"
     showgrid="true"
     fit-margin-top="0"
     fit-margin-left="0"
     fit-margin-right="0"
     fit-margin-bottom="0"
     units="px"
     inkscape:window-width="1920"
     inkscape:window-height="1013"
     inkscape:window-x="0"
     inkscape:window-y="0"
     inkscape:window-maximized="1">
    <inkscape:grid
       type="xygrid"
       id="grid10"
       originx="-125.25048"
       originy="-408.62755" />
  </sodipodi:namedview>
  <metadata
     id="metadata5">
    <rdf:RDF>
      <cc:Work
         rdf:about="">
        <dc:format>image/svg+xml</dc:format>
        <dc:type
           rdf:resource="http://purl.org/dc/dcmitype/StillImage" />
        <dc:title></dc:title>
      </cc:Work>
    </rdf:RDF>
  </metadata>
  <g
     inkscape:groupmode="layer"
     id="layer2"
     inkscape:label="Layer 2"
     transform="translate(-0.89627582,-27.970102)">
    <rect
       style="fill:#000000;fill-opacity:1;stroke-width:0.16632979"
       id="rect14-86"
       width="18.089897"
       height="5.2762198"
       x="2.6458066"
       y="44.040798"
       rx="1.0404322" />
    <rect
       style="fill:#005d7c;fill-opacity:1;stroke-width:0.15074916"
       id="rect12"
       width="18.089903"
       height="6.0299668"
       x="2.6458046"
       y="31.227093"
       rx="0.9970808" />
    <rect
       style="fill:#000000;fill-opacity:1;stroke-width:0.16632979"
       id="rect14"
       width="18.089897"
       height="5.2762198"
       x="2.6458046"
       y="38.010818"
       rx="1.0404322" />
    <rect
       style="fill:#000000;fill-opacity:1;stroke-width:0.15074916"
       id="rect18"
       width="12.813681"
       height="2.2612379"
       x="1.1383413"
       y="28.212168"
       rx="0.9970808" />
    <rect
       style="fill:#4d4d4d;fill-opacity:1;stroke-width:0.16632979"
       id="rect14-8"
       width="18.089897"
       height="5.2762198"
       x="2.403764"
       y="43.798733"
       rx="1.0404322" />
    <text
       xml:space="preserve"
       style="font-style:normal;font-weight:normal;font-size:6.02996683px;line-height:1.25;font-family:sans-serif;letter-spacing:0px;word-spacing:0px;fill:#000000;fill-opacity:1;stroke:none;stroke-width:0.15074916"
       x="11.448716"
       y="46.813717"
       id="text41"><tspan
         sodipodi:role="line"
         id="tspan39"
         x="11.448716"
         y="52.148823"
         style="stroke-width:0.15074916" /></text>
    <rect
       style="fill:#4d4d4d;fill-opacity:1;stroke-width:0.15074916"
       id="rect18-1"
       width="12.813681"
       height="2.2612379"
       x="0.89627582"
       y="27.970102"
       rx="0.9970808" />
    <rect
       style="fill:#4d4d4d;fill-opacity:1;stroke-width:0.16632979"
       id="rect14-3"
       width="18.089897"
       height="5.2762198"
       x="2.4037392"
       y="37.768753"
       rx="1.0404322" />
    <rect
       style="fill:#00b1ec;fill-opacity:1;stroke-width:0.15074916"
       id="rect12-3"
       width="18.089903"
       height="6.0299668"
       x="2.4037392"
       y="30.985027"
       rx="0.9970808" />
    <g
       aria-label="copier-cpp-cmake"
       style="font-style:normal;font-weight:normal;font-size:10.58333397px;line-height:1.25;font-family:sans-serif;letter-spacing:0px;word-spacing:0px;fill:#00b1ec;fill-opacity:1;stroke:none;stroke-width:0.26458335"
       id="text852">
      <path
         d="m 15.119753,45.171984 q -0.5715,0 -0.9525,-0.22225 -0.381,-0.22225 -0.624417,-0.60325 -0.232833,-0.391583 -0.338666,-0.92075 -0.09525,-0.529167 -0.09525,-1.153583 0,-1.375834 0.497416,-2.148417 0.508,-0.783167 1.524001,-0.783167 0.306916,0 0.550333,0.07408 0.243417,0.07408 0.455083,0.1905 l -0.232833,0.751416 q -0.328083,-0.211666 -0.73025,-0.211666 -0.5715,0 -0.846667,0.518583 -0.264583,0.518583 -0.264583,1.608667 0,0.455083 0.05292,0.846666 0.05292,0.381001 0.179917,0.656167 0.137584,0.275167 0.34925,0.433917 0.22225,0.15875 0.560917,0.15875 0.232833,0 0.41275,-0.05292 0.1905,-0.0635 0.359833,-0.15875 l 0.201084,0.709084 q -0.169334,0.116416 -0.455084,0.211666 -0.275166,0.09525 -0.60325,0.09525 z"
         style="font-style:normal;font-variant:normal;font-weight:normal;font-stretch:normal;font-family:'Ubuntu Condensed';-inkscape-font-specification:'Ubuntu Condensed, ';fill:#00b1ec;fill-opacity:1;stroke-width:0.26458335"
         id="path854"
         inkscape:connector-curvature="0" />
      <path
         d="m 20.675979,42.261567 q 0,0.656167 -0.116417,1.195917 -0.116416,0.529167 -0.359833,0.910167 -0.232834,0.381 -0.60325,0.592667 -0.359834,0.211666 -0.85725,0.211666 -0.497417,0 -0.867834,-0.211666 -0.370416,-0.211667 -0.613833,-0.592667 -0.232833,-0.381 -0.34925,-0.910167 -0.116417,-0.53975 -0.116417,-1.195917 0,-0.645583 0.116417,-1.185333 0.116417,-0.53975 0.34925,-0.92075 0.243417,-0.391583 0.613833,-0.60325 0.370417,-0.211667 0.867834,-0.211667 0.497416,0 0.85725,0.211667 0.370416,0.211667 0.60325,0.60325 0.243417,0.381 0.359833,0.92075 0.116417,0.53975 0.116417,1.185333 z m -0.9525,0 q 0,-0.465666 -0.05292,-0.846666 -0.05292,-0.391584 -0.169333,-0.66675 -0.116417,-0.28575 -0.306917,-0.433917 -0.1905,-0.15875 -0.455083,-0.15875 -0.275167,0 -0.465667,0.15875 -0.179917,0.148167 -0.306917,0.433917 -0.116416,0.275166 -0.169333,0.66675 -0.05292,0.381 -0.05292,0.846666 0,0.465667 0.05292,0.85725 0.05292,0.381001 0.169333,0.656167 0.127,0.275167 0.306917,0.433917 0.1905,0.148167 0.465667,0.148167 0.264583,0 0.455083,-0.148167 0.1905,-0.15875 0.306917,-0.433917 0.116416,-0.275166 0.169333,-0.656167 0.05292,-0.391583 0.05292,-0.85725 z"
         style="font-style:normal;font-variant:normal;font-weight:normal;font-stretch:normal;font-family:'Ubuntu Condensed';-inkscape-font-specification:'Ubuntu Condensed, ';fill:#00b1ec;fill-opacity:1;stroke-width:0.26458335"
         id="path856"
         inkscape:connector-curvature="0" />
      <path
         d="m 22.909056,44.198318 q 0.306916,0.169333 0.656167,0.169333 0.264583,0 0.465666,-0.105833 0.201084,-0.105834 0.338667,-0.34925 0.148167,-0.243417 0.22225,-0.645584 0.07408,-0.402167 0.07408,-0.994833 0,-1.143 -0.296333,-1.629834 -0.28575,-0.497416 -0.92075,-0.497416 -0.116417,0 -0.254,0.02117 -0.137584,0.01058 -0.28575,0.05292 z m 0,2.794 h -0.910167 v -7.366001 q 0.296333,-0.127 0.66675,-0.201083 0.381,-0.08467 0.772583,-0.08467 0.582084,0 0.994834,0.201084 0.423333,0.201083 0.677333,0.582083 0.264584,0.370417 0.381,0.92075 0.127,0.53975 0.127,1.23825 0,1.407584 -0.455083,2.148417 -0.4445,0.740833 -1.4605,0.740833 -0.243417,0 -0.433917,-0.05292 -0.1905,-0.04233 -0.359833,-0.127 z"
         style="font-style:normal;font-variant:normal;font-weight:normal;font-stretch:normal;font-family:'Ubuntu Condensed';-inkscape-font-specification:'Ubuntu Condensed, ';fill:#00b1ec;fill-opacity:1;stroke-width:0.26458335"
         id="path858"
         inkscape:connector-curvature="0" />
      <path
         d="m 27.862046,45.034401 h -0.910167 v -5.55625 h 0.910167 z m -0.455084,-6.5405 q -0.243416,0 -0.423333,-0.15875 -0.169333,-0.169334 -0.169333,-0.4445 0,-0.275167 0.169333,-0.433917 0.179917,-0.169334 0.423333,-0.169334 0.243417,0 0.41275,0.169334 0.179917,0.15875 0.179917,0.433917 0,0.275166 -0.179917,0.4445 -0.169333,0.15875 -0.41275,0.15875 z"
         style="font-style:normal;font-variant:normal;font-weight:normal;font-stretch:normal;font-family:'Ubuntu Condensed';-inkscape-font-specification:'Ubuntu Condensed, ';fill:#00b1ec;fill-opacity:1;stroke-width:0.26458335"
         id="path860"
         inkscape:connector-curvature="0" />
      <path
         d="m 30.137449,42.526151 q 0.01058,0.402166 0.07408,0.740833 0.0635,0.328084 0.201083,0.582084 0.148167,0.243416 0.381,0.381 0.243417,0.137583 0.613833,0.137583 0.306917,0 0.560917,-0.08467 0.264583,-0.09525 0.381,-0.15875 l 0.169333,0.73025 q -0.137583,0.09525 -0.465666,0.201084 -0.3175,0.116416 -0.762,0.116416 -0.582084,0 -0.98425,-0.211666 -0.391584,-0.211667 -0.645584,-0.592667 -0.243417,-0.381 -0.34925,-0.910167 -0.105833,-0.529167 -0.105833,-1.164167 0,-1.534583 0.508,-2.243666 0.508,-0.709084 1.344083,-0.709084 0.941917,0 1.3335,0.709084 0.391584,0.709083 0.391584,1.989666 0,0.116417 0,0.243417 0,0.116417 -0.01058,0.243417 z m 0.92075,-2.413 q -0.455083,0 -0.66675,0.455083 -0.201083,0.455083 -0.243416,1.217083 h 1.68275 q 0,-0.772583 -0.15875,-1.217083 -0.15875,-0.455083 -0.613834,-0.455083 z"
         style="font-style:normal;font-variant:normal;font-weight:normal;font-stretch:normal;font-family:'Ubuntu Condensed';-inkscape-font-specification:'Ubuntu Condensed, ';fill:#00b1ec;fill-opacity:1;stroke-width:0.26458335"
         id="path862"
         inkscape:connector-curvature="0" />
      <path
         d="m 36.529772,40.303651 q -0.338667,-0.148167 -0.762,-0.148167 -0.391583,0 -0.73025,0.137583 v 4.741334 h -0.910167 v -5.312834 q 0.306917,-0.148166 0.6985,-0.243416 0.402167,-0.105834 0.878417,-0.105834 0.254,0 0.508,0.03175 0.254,0.03175 0.47625,0.116417 z"
         style="font-style:normal;font-variant:normal;font-weight:normal;font-stretch:normal;font-family:'Ubuntu Condensed';-inkscape-font-specification:'Ubuntu Condensed, ';fill:#00b1ec;fill-opacity:1;stroke-width:0.26458335"
         id="path864"
         inkscape:connector-curvature="0" />
      <path
         d="m 36.762579,41.436067 h 1.957917 v 0.85725 h -1.957917 z"
         style="font-style:normal;font-variant:normal;font-weight:normal;font-stretch:normal;font-family:'Ubuntu Condensed';-inkscape-font-specification:'Ubuntu Condensed, ';fill:#00b1ec;fill-opacity:1;stroke-width:0.26458335"
         id="path866"
         inkscape:connector-curvature="0" />
      <path
         d="m 41.652071,45.171984 q -0.5715,0 -0.9525,-0.22225 -0.381,-0.22225 -0.624416,-0.60325 -0.232834,-0.391583 -0.338667,-0.92075 -0.09525,-0.529167 -0.09525,-1.153583 0,-1.375834 0.497417,-2.148417 0.508,-0.783167 1.524,-0.783167 0.306916,0 0.550333,0.07408 0.243417,0.07408 0.455083,0.1905 l -0.232833,0.751416 q -0.328083,-0.211666 -0.73025,-0.211666 -0.5715,0 -0.846667,0.518583 -0.264583,0.518583 -0.264583,1.608667 0,0.455083 0.05292,0.846666 0.05292,0.381001 0.179916,0.656167 0.137584,0.275167 0.34925,0.433917 0.22225,0.15875 0.560917,0.15875 0.232833,0 0.41275,-0.05292 0.1905,-0.0635 0.359833,-0.15875 l 0.201084,0.709084 q -0.169334,0.116416 -0.455084,0.211666 -0.275166,0.09525 -0.60325,0.09525 z"
         style="font-style:normal;font-variant:normal;font-weight:normal;font-stretch:normal;font-family:'Ubuntu Condensed';-inkscape-font-specification:'Ubuntu Condensed, ';fill:#00b1ec;fill-opacity:1;stroke-width:0.26458335"
         id="path868"
         inkscape:connector-curvature="0" />
      <path
         d="m 44.594224,44.198318 q 0.306917,0.169333 0.656167,0.169333 0.264583,0 0.465666,-0.105833 0.201084,-0.105834 0.338667,-0.34925 0.148167,-0.243417 0.22225,-0.645584 0.07408,-0.402167 0.07408,-0.994833 0,-1.143 -0.296334,-1.629834 -0.28575,-0.497416 -0.92075,-0.497416 -0.116417,0 -0.254,0.02117 -0.137583,0.01058 -0.28575,0.05292 z m 0,2.794 h -0.910167 v -7.366001 q 0.296334,-0.127 0.66675,-0.201083 0.381,-0.08467 0.772584,-0.08467 0.582083,0 0.994833,0.201084 0.423334,0.201083 0.677334,0.582083 0.264583,0.370417 0.381,0.92075 0.127,0.53975 0.127,1.23825 0,1.407584 -0.455084,2.148417 -0.4445,0.740833 -1.4605,0.740833 -0.243417,0 -0.433917,-0.05292 -0.1905,-0.04233 -0.359833,-0.127 z"
         style="font-style:normal;font-variant:normal;font-weight:normal;font-stretch:normal;font-family:'Ubuntu Condensed';-inkscape-font-specification:'Ubuntu Condensed, ';fill:#00b1ec;fill-opacity:1;stroke-width:0.26458335"
         id="path870"
         inkscape:connector-curvature="0" />
      <path
         d="m 49.536632,44.198318 q 0.306916,0.169333 0.656166,0.169333 0.264584,0 0.465667,-0.105833 0.201083,-0.105834 0.338667,-0.34925 0.148166,-0.243417 0.22225,-0.645584 0.07408,-0.402167 0.07408,-0.994833 0,-1.143 -0.296333,-1.629834 -0.28575,-0.497416 -0.92075,-0.497416 -0.116417,0 -0.254,0.02117 -0.137584,0.01058 -0.28575,0.05292 z m 0,2.794 h -0.910167 v -7.366001 q 0.296333,-0.127 0.66675,-0.201083 0.381,-0.08467 0.772583,-0.08467 0.582084,0 0.994834,0.201084 0.423333,0.201083 0.677333,0.582083 0.264583,0.370417 0.381,0.92075 0.127,0.53975 0.127,1.23825 0,1.407584 -0.455083,2.148417 -0.4445,0.740833 -1.4605,0.740833 -0.243417,0 -0.433917,-0.05292 -0.1905,-0.04233 -0.359833,-0.127 z"
         style="font-style:normal;font-variant:normal;font-weight:normal;font-stretch:normal;font-family:'Ubuntu Condensed';-inkscape-font-specification:'Ubuntu Condensed, ';fill:#00b1ec;fill-opacity:1;stroke-width:0.26458335"
         id="path872"
         inkscape:connector-curvature="0" />
      <path
         d="m 53.166699,41.436067 h 1.957917 v 0.85725 h -1.957917 z"
         style="font-style:normal;font-variant:normal;font-weight:normal;font-stretch:normal;font-family:'Ubuntu Condensed';-inkscape-font-specification:'Ubuntu Condensed, ';fill:#00b1ec;fill-opacity:1;stroke-width:0.26458335"
         id="path874"
         inkscape:connector-curvature="0" />
      <path
         d="m 58.056189,45.171984 q -0.5715,0 -0.9525,-0.22225 -0.381,-0.22225 -0.624417,-0.60325 -0.232833,-0.391583 -0.338667,-0.92075 -0.09525,-0.529167 -0.09525,-1.153583 0,-1.375834 0.497417,-2.148417 0.508,-0.783167 1.524,-0.783167 0.306917,0 0.550334,0.07408 0.243416,0.07408 0.455083,0.1905 l -0.232833,0.751416 q -0.328084,-0.211666 -0.73025,-0.211666 -0.5715,0 -0.846667,0.518583 -0.264583,0.518583 -0.264583,1.608667 0,0.455083 0.05292,0.846666 0.05292,0.381001 0.179917,0.656167 0.137583,0.275167 0.34925,0.433917 0.22225,0.15875 0.560917,0.15875 0.232833,0 0.41275,-0.05292 0.1905,-0.0635 0.359833,-0.15875 l 0.201083,0.709084 q -0.169333,0.116416 -0.455083,0.211666 -0.275167,0.09525 -0.60325,0.09525 z"
         style="font-style:normal;font-variant:normal;font-weight:normal;font-stretch:normal;font-family:'Ubuntu Condensed';-inkscape-font-specification:'Ubuntu Condensed, ';fill:#00b1ec;fill-opacity:1;stroke-width:0.26458335"
         id="path876"
         inkscape:connector-curvature="0" />
      <path
         d="m 60.09876,39.636901 q 0.370417,-0.116417 0.804334,-0.1905 0.433916,-0.08467 0.79375,-0.08467 0.370416,0 0.66675,0.09525 0.306916,0.09525 0.53975,0.3175 0.275166,-0.179917 0.592666,-0.296333 0.3175,-0.116417 0.6985,-0.116417 0.381,0 0.687917,0.116417 0.3175,0.105833 0.53975,0.370416 0.22225,0.264584 0.34925,0.719667 0.127,0.4445 0.127,1.11125 v 3.354917 H 64.98826 v -3.280834 q 0,-0.8255 -0.1905,-1.2065 -0.1905,-0.381 -0.719666,-0.381 -0.201084,0 -0.41275,0.07408 -0.201084,0.07408 -0.381,0.201083 0.08467,0.243417 0.127,0.550333 0.04233,0.306917 0.04233,0.687917 v 3.354917 H 62.54351 V 41.75356 q 0,-0.8255 -0.1905,-1.2065 -0.1905,-0.381 -0.719666,-0.381 -0.275167,0 -0.624417,0.105834 v 4.7625 H 60.09876 Z"
         style="font-style:normal;font-variant:normal;font-weight:normal;font-stretch:normal;font-family:'Ubuntu Condensed';-inkscape-font-specification:'Ubuntu Condensed, ';fill:#00b1ec;fill-opacity:1;stroke-width:0.26458335"
         id="path878"
         inkscape:connector-curvature="0" />
      <path
         d="m 67.570592,39.594567 q 0.275167,-0.116416 0.582083,-0.179916 0.306917,-0.07408 0.66675,-0.07408 0.740834,0 1.2065,0.465667 0.465667,0.455083 0.465667,1.42875 v 3.683 q -0.381,0.105834 -0.783167,0.169334 -0.391583,0.0635 -0.772583,0.0635 -0.381,0 -0.719667,-0.09525 -0.328083,-0.09525 -0.582083,-0.306917 -0.243417,-0.211667 -0.391583,-0.529167 -0.148167,-0.328083 -0.148167,-0.79375 0,-0.433917 0.127,-0.751417 0.137583,-0.328083 0.370417,-0.53975 0.232833,-0.22225 0.550333,-0.328083 0.3175,-0.116417 0.687917,-0.116417 0.34925,0 0.772583,0.08467 v -0.508 q 0,-0.613833 -0.243417,-0.85725 -0.232833,-0.243417 -0.677333,-0.243417 -0.243417,0 -0.465667,0.05292 -0.211666,0.04233 -0.455083,0.148167 z m 0.433917,3.820584 q 0,0.486833 0.254,0.719667 0.254,0.232833 0.719666,0.232833 0.28575,0 0.624417,-0.07408 v -1.767417 q -0.3175,-0.08467 -0.624417,-0.08467 -0.201083,0 -0.381,0.05292 -0.179916,0.04233 -0.3175,0.15875 -0.127,0.105833 -0.201083,0.296333 -0.07408,0.179917 -0.07408,0.465667 z"
         style="font-style:normal;font-variant:normal;font-weight:normal;font-stretch:normal;font-family:'Ubuntu Condensed';-inkscape-font-specification:'Ubuntu Condensed, ';fill:#00b1ec;fill-opacity:1;stroke-width:0.26458335"
         id="path880"
         inkscape:connector-curvature="0" />
      <path
         d="m 75.518656,39.478151 q -0.4445,0.762 -0.85725,1.397 -0.402167,0.624416 -0.804333,1.17475 0.254,0.296333 0.518583,0.66675 0.264583,0.370416 0.508,0.772583 0.243417,0.391584 0.455083,0.79375 0.211667,0.391584 0.359834,0.751417 h -0.994834 q -0.15875,-0.34925 -0.370416,-0.73025 -0.211667,-0.381 -0.4445,-0.740833 -0.232834,-0.370417 -0.465667,-0.698501 -0.232833,-0.328083 -0.433917,-0.550333 v 2.719917 h -0.910166 v -8.053917 l 0.910166,-0.15875 v 5.04825 q 0.1905,-0.254 0.402167,-0.5715 0.22225,-0.3175 0.433917,-0.635 0.211666,-0.328083 0.402166,-0.635 0.1905,-0.306917 0.3175,-0.550333 z"
         style="font-style:normal;font-variant:normal;font-weight:normal;font-stretch:normal;font-family:'Ubuntu Condensed';-inkscape-font-specification:'Ubuntu Condensed, ';fill:#00b1ec;fill-opacity:1;stroke-width:0.26458335"
         id="path882"
         inkscape:connector-curvature="0" />
      <path
         d="m 77.063791,42.526151 q 0.01058,0.402166 0.07408,0.740833 0.0635,0.328084 0.201083,0.582084 0.148167,0.243416 0.381,0.381 0.243417,0.137583 0.613833,0.137583 0.306917,0 0.560917,-0.08467 0.264583,-0.09525 0.381,-0.15875 l 0.169333,0.73025 q -0.137583,0.09525 -0.465666,0.201084 -0.3175,0.116416 -0.762,0.116416 -0.582084,0 -0.98425,-0.211666 -0.391584,-0.211667 -0.645584,-0.592667 -0.243417,-0.381 -0.34925,-0.910167 -0.105833,-0.529167 -0.105833,-1.164167 0,-1.534583 0.508,-2.243666 0.508,-0.709084 1.344083,-0.709084 0.941917,0 1.3335,0.709084 0.391584,0.709083 0.391584,1.989666 0,0.116417 0,0.243417 0,0.116417 -0.01058,0.243417 z m 0.92075,-2.413 q -0.455083,0 -0.66675,0.455083 -0.201083,0.455083 -0.243416,1.217083 h 1.68275 q 0,-0.772583 -0.15875,-1.217083 -0.15875,-0.455083 -0.613834,-0.455083 z"
         style="font-style:normal;font-variant:normal;font-weight:normal;font-stretch:normal;font-family:'Ubuntu Condensed';-inkscape-font-specification:'Ubuntu Condensed, ';fill:#00b1ec;fill-opacity:1;stroke-width:0.26458335"
         id="path884"
         inkscape:connector-curvature="0" />
    </g>
  </g>
  <g
     inkscape:label="Layer 1"
     inkscape:groupmode="layer"
     id="layer1"
     transform="translate(-63.073358,-76.26177)" />
</svg>
