<?xml version="1.0" encoding="UTF-8" standalone="no"?>
<!-- Created with Inkscape (http://www.inkscape.org/) -->

<svg
   xmlns:dc="http://purl.org/dc/elements/1.1/"
   xmlns:cc="http://creativecommons.org/ns#"
   xmlns:rdf="http://www.w3.org/1999/02/22-rdf-syntax-ns#"
   xmlns:svg="http://www.w3.org/2000/svg"
   xmlns="http://www.w3.org/2000/svg"
   xmlns:sodipodi="http://sodipodi.sourceforge.net/DTD/sodipodi-0.dtd"
   xmlns:inkscape="http://www.inkscape.org/namespaces/inkscape"
   width="78.121475mm"
   height="20.842657mm"
   viewBox="0 0 78.121476 20.842657"
   version="1.1"
   id="svg5"
   inkscape:version="0.92.5 (2060ec1f9f, 2020-04-08)"
   sodipodi:docname="logo_2.svg">
  <metadata
     id="metadata286">
    <rdf:RDF>
      <cc:Work
         rdf:about="">
        <dc:format>image/svg+xml</dc:format>
        <dc:type
           rdf:resource="http://purl.org/dc/dcmitype/StillImage" />
        <dc:title></dc:title>
      </cc:Work>
    </rdf:RDF>
  </metadata>
  <sodipodi:namedview
     id="namedview7"
     pagecolor="#ffffff"
     bordercolor="#666666"
     borderopacity="1.0"
     inkscape:pageshadow="2"
     inkscape:pageopacity="0.0"
     inkscape:pagecheckerboard="true"
     inkscape:document-units="mm"
     showgrid="false"
     inkscape:zoom="5.9295174"
     inkscape:cx="88.732584"
     inkscape:cy="37.136578"
     inkscape:window-width="1920"
     inkscape:window-height="1013"
     inkscape:window-x="0"
     inkscape:window-y="0"
     inkscape:window-maximized="1"
     inkscape:current-layer="layer1"
     borderlayer="false"
     showborder="true"
     fit-margin-top="0"
     fit-margin-left="0"
     fit-margin-right="0"
     fit-margin-bottom="0" />
  <defs
     id="defs2" />
  <g
     inkscape:label="Layer 1"
     inkscape:groupmode="layer"
     id="layer1"
     transform="translate(-18.026806,-21.369238)">
    <path
       id="path31"
       style="fill:#d38d5f;fill-opacity:1;fill-rule:evenodd;stroke-width:0.99999899"
       d="m 105.47656,80.765625 a 39.463579,39.463579 0 0 0 -37.343748,39.312495 39.463579,39.463579 0 0 0 39.464848,39.4629 39.463579,39.463579 0 0 0 39.43164,-39.03321 19.900438,17.876666 0 0 1 -5.02735,0.58203 19.900438,17.876666 0 0 1 -19.90039,-17.87695 19.900438,17.876666 0 0 1 0.38672,-3.447265 16.021539,11.130754 24.954431 0 1 -7.27539,-1.976563 16.021539,11.130754 24.954431 0 1 -9.83008,-16.851562 16.021539,11.130754 24.954431 0 1 0.0937,-0.171875 z"
       transform="scale(0.26458333)"
       inkscape:connector-curvature="0" />
    <path
       id="path31-9"
       style="fill:#deaa87;fill-opacity:1;fill-rule:evenodd;stroke-width:0.95854098"
       d="m 105.47461,80.769531 a 36.259269,39.463579 0 0 0 -30.595704,38.970699 36.259269,39.463579 0 0 0 36.259764,39.46289 36.259269,39.463579 0 0 0 36.23633,-38.77929 19.900438,17.876666 0 0 1 -5.37305,0.66601 19.900438,17.876666 0 0 1 -19.90039,-17.87695 19.900438,17.876666 0 0 1 0.38672,-3.447265 16.021539,11.130754 24.954431 0 1 -7.27539,-1.976563 16.021539,11.130754 24.954431 0 1 -9.83008,-16.851562 16.021539,11.130754 24.954431 0 1 0.0918,-0.167969 z"
       transform="scale(0.26458333)"
       inkscape:connector-curvature="0" />
    <path
       sodipodi:type="star"
       style="fill:#784421;fill-opacity:1"
       id="path1228"
       inkscape:flatsided="true"
       sodipodi:sides="5"
       sodipodi:cx="90.395218"
       sodipodi:cy="98.490311"
       sodipodi:r1="4.5877161"
       sodipodi:r2="3.71154"
       sodipodi:arg1="2.8430937"
       sodipodi:arg2="3.4714123"
       inkscape:rounded="0"
       inkscape:randomized="0"
       d="m 86.010375,99.839493 1.746703,-5.102495 5.392523,0.08446 1.586059,5.154692 -4.412284,3.101315 z"
       transform="scale(0.26458333)"
       inkscape:transform-center-x="0.0058741752"
       inkscape:transform-center-y="0.11030982" />
    <path
       sodipodi:type="star"
       style="fill:#a05a2c;fill-opacity:1"
       id="path1274"
       inkscape:flatsided="true"
       sodipodi:sides="5"
       sodipodi:cx="106.9227"
       sodipodi:cy="124.79936"
       sodipodi:r1="6.3012013"
       sodipodi:r2="5.0977788"
       sodipodi:arg1="-0.27094685"
       sodipodi:arg2="0.35737168"
       inkscape:rounded="0"
       inkscape:randomized="0"
       d="m 112.99402,123.11288 -2.59124,6.9395 -7.4006,-0.32 -1.98257,-7.13726 6.17529,-4.09108 z"
       transform="matrix(0.26458333,0,0,0.26458333,1.695613,2.1418269)"
       inkscape:transform-center-x="-0.02225536"
       inkscape:transform-center-y="-0.13788811" />
    <path
       sodipodi:type="star"
       style="fill:#784421;fill-opacity:1"
       id="path1320"
       inkscape:flatsided="true"
       sodipodi:sides="5"
       sodipodi:cx="120.07723"
       sodipodi:cy="100.51408"
       sodipodi:r1="5.4491768"
       sodipodi:r2="4.4084768"
       sodipodi:arg1="0.38050638"
       sodipodi:arg2="1.0088249"
       inkscape:rounded="0"
       inkscape:randomized="0"
       d="m 125.13667,102.53785 -5.42071,3.41341 -4.92144,-4.10059 2.37909,-5.947721 6.3918,0.4247 z"
       transform="matrix(0.26458333,0,0,0.26458333,-7.6748798,5.7115385)"
       inkscape:transform-center-x="0.029538265"
       inkscape:transform-center-y="0.10928054" />
    <path
       sodipodi:type="star"
       style="fill:#a05a2c;fill-opacity:1"
       id="path1740"
       inkscape:flatsided="true"
       sodipodi:sides="5"
       sodipodi:cx="105.23622"
       sodipodi:cy="105.23622"
       sodipodi:r1="3.7710793"
       sodipodi:r2="3.0508673"
       sodipodi:arg1="1.3089969"
       sodipodi:arg2="1.9373155"
       inkscape:rounded="0"
       inkscape:randomized="0"
       d="m 106.21225,108.8788 -4.13872,-1.5887 0.23201,-4.4271 4.28212,-1.14738 2.41447,3.71796 z"
       transform="scale(0.26458333)"
       inkscape:transform-center-x="-0.079800354"
       inkscape:transform-center-y="0.016136198" />
    <path
       sodipodi:type="star"
       style="fill:#502d16;fill-opacity:1"
       id="path1767"
       inkscape:flatsided="true"
       sodipodi:sides="5"
       sodipodi:cx="95.791946"
       sodipodi:cy="143.68793"
       sodipodi:r1="5.0594339"
       sodipodi:r2="4.0931678"
       sodipodi:arg1="0.64350111"
       sodipodi:arg2="1.2718196"
       inkscape:rounded="0"
       inkscape:randomized="0"
       d="m 99.839494,146.72359 -5.683871,1.75185 -3.422527,-4.86433 3.568632,-4.75817 5.628064,1.92361 z"
       transform="scale(0.26458333)"
       inkscape:transform-center-x="0.12184165"
       inkscape:transform-center-y="-0.0062807095" />
    <path
       sodipodi:type="star"
       style="fill:#502d16;fill-opacity:1"
       id="path1791"
       inkscape:flatsided="true"
       sodipodi:sides="5"
       sodipodi:cx="127.49773"
       sodipodi:cy="122.77559"
       sodipodi:r1="4.8645458"
       sodipodi:r2="3.9355004"
       sodipodi:arg1="0.5880026"
       sodipodi:arg2="1.2163211"
       inkscape:rounded="0"
       inkscape:randomized="0"
       d="m 131.54527,125.47395 -5.36308,1.98493 -3.54506,-4.48723 3.17212,-4.75817 5.50553,1.5465 z"
       transform="scale(0.26458333)"
       inkscape:transform-center-x="0.10755967"
       inkscape:transform-center-y="0.016030057" />
    <path
       sodipodi:type="star"
       style="fill:#a05a2c;fill-opacity:1"
       id="path1793"
       inkscape:flatsided="true"
       sodipodi:sides="5"
       sodipodi:cx="126.48584"
       sodipodi:cy="140.98955"
       sodipodi:r1="2.4322729"
       sodipodi:r2="1.9677502"
       sodipodi:arg1="0.5880026"
       sodipodi:arg2="1.2163211"
       inkscape:rounded="0"
       inkscape:randomized="0"
       d="m 128.50961,142.33873 -2.68154,0.99246 -1.77253,-2.24361 1.58606,-2.37909 2.75277,0.77326 z"
       transform="scale(0.26458333)"
       inkscape:transform-center-x="0.053780043"
       inkscape:transform-center-y="0.0080147632" />
    <path
       id="path1817"
       style="fill:#a05a2c;fill-opacity:1"
       inkscape:transform-center-x="0.13003616"
       inkscape:transform-center-y="-0.052995359"
       d="m 116.53711,98.351562 -1.91602,2.189458 4.31836,7.24023 3.62305,-0.82422 a 19.900438,17.876666 0 0 1 -0.46094,-3.74414 19.900438,17.876666 0 0 1 0.38672,-3.447265 16.021539,11.130754 24.954431 0 1 -5.95117,-1.414063 z"
       transform="scale(0.26458333)"
       inkscape:connector-curvature="0" />
    <g
       aria-label="Cpp"
       id="text1979"
       style="font-size:5.64444017px;line-height:1.25;font-family:Arial;-inkscape-font-specification:Arial;stroke-width:0.26458299"
       transform="translate(-0.98167067)">
      <g
         aria-label="cookiecutter-cpp-cmake"
         style="font-style:normal;font-variant:normal;font-weight:normal;font-stretch:normal;font-size:10.58333302px;line-height:1.25;font-family:'Ubuntu Mono';-inkscape-font-specification:'Ubuntu Mono';letter-spacing:0px;word-spacing:0px;fill:#00b1ec;fill-opacity:1;stroke:none;stroke-width:0.07000425"
         id="text290">
        <path
           d="m 35.571866,35.209782 q 0,-0.3556 0.112889,-0.615244 0.112889,-0.259645 0.310444,-0.428978 0.197556,-0.169333 0.4572,-0.248355 0.265289,-0.08467 0.564445,-0.08467 0.191911,0 0.378177,0.02822 0.191912,0.02258 0.4064,0.09031 l -0.107244,0.400756 q -0.186267,-0.06773 -0.344311,-0.08467 -0.1524,-0.02258 -0.310445,-0.02258 -0.2032,0 -0.383822,0.05644 -0.180622,0.0508 -0.316089,0.169333 -0.129822,0.112889 -0.208844,0.299156 -0.07902,0.180622 -0.07902,0.440266 0,0.248356 0.07338,0.428978 0.07338,0.174978 0.2032,0.293511 0.135467,0.112889 0.321734,0.169334 0.186266,0.05644 0.412044,0.05644 0.180622,0 0.344311,-0.01693 0.169334,-0.02258 0.366889,-0.09031 l 0.06773,0.389466 q -0.197556,0.07338 -0.400756,0.1016 -0.2032,0.03387 -0.440267,0.03387 -0.316089,0 -0.581377,-0.08467 -0.259645,-0.09031 -0.451556,-0.259644 -0.186267,-0.169334 -0.293511,-0.423334 -0.1016,-0.259644 -0.1016,-0.598311 z"
           style="font-style:normal;font-variant:normal;font-weight:normal;font-stretch:normal;font-size:5.64444447px;font-family:'Ubuntu Mono';-inkscape-font-specification:'Ubuntu Mono';fill:#00b1ec;fill-opacity:1;stroke-width:0.07000425"
           id="path292"
           inkscape:connector-curvature="0" />
        <path
           d="m 40.713944,35.204138 q 0,0.310444 -0.09031,0.564444 -0.08467,0.248356 -0.242711,0.428978 -0.158045,0.180622 -0.378178,0.282222 -0.220133,0.09596 -0.479778,0.09596 -0.254,0 -0.474133,-0.09596 -0.214489,-0.1016 -0.372533,-0.282222 -0.158045,-0.180622 -0.248356,-0.428978 -0.08467,-0.254 -0.08467,-0.564444 0,-0.310445 0.08467,-0.564445 0.09031,-0.254 0.248356,-0.428977 0.158044,-0.180623 0.372533,-0.276578 0.220133,-0.1016 0.474133,-0.1016 0.259645,0 0.479778,0.1016 0.220133,0.09596 0.378178,0.276578 0.158044,0.174977 0.242711,0.428977 0.09031,0.254 0.09031,0.564445 z m -0.479778,0 q 0,-0.445911 -0.191911,-0.699911 -0.191911,-0.259645 -0.519289,-0.259645 -0.321733,0 -0.513644,0.259645 -0.186267,0.254 -0.186267,0.699911 0,0.440267 0.186267,0.699911 0.191911,0.254 0.513644,0.254 0.327378,0 0.519289,-0.254 0.191911,-0.259644 0.191911,-0.699911 z"
           style="font-style:normal;font-variant:normal;font-weight:normal;font-stretch:normal;font-size:5.64444447px;font-family:'Ubuntu Mono';-inkscape-font-specification:'Ubuntu Mono';fill:#00b1ec;fill-opacity:1;stroke-width:0.07000425"
           id="path294"
           inkscape:connector-curvature="0" />
        <path
           d="m 43.536156,35.204138 q 0,0.310444 -0.09031,0.564444 -0.08467,0.248356 -0.242711,0.428978 -0.158044,0.180622 -0.378177,0.282222 -0.220134,0.09596 -0.479778,0.09596 -0.254,0 -0.474134,-0.09596 -0.214488,-0.1016 -0.372533,-0.282222 -0.158044,-0.180622 -0.248355,-0.428978 -0.08467,-0.254 -0.08467,-0.564444 0,-0.310445 0.08467,-0.564445 0.09031,-0.254 0.248355,-0.428977 0.158045,-0.180623 0.372533,-0.276578 0.220134,-0.1016 0.474134,-0.1016 0.259644,0 0.479778,0.1016 0.220133,0.09596 0.378177,0.276578 0.158045,0.174977 0.242711,0.428977 0.09031,0.254 0.09031,0.564445 z m -0.479778,0 q 0,-0.445911 -0.191911,-0.699911 -0.191911,-0.259645 -0.519289,-0.259645 -0.321734,0 -0.513645,0.259645 -0.186266,0.254 -0.186266,0.699911 0,0.440267 0.186266,0.699911 0.191911,0.254 0.513645,0.254 0.327378,0 0.519289,-0.254 0.191911,-0.259644 0.191911,-0.699911 z"
           style="font-style:normal;font-variant:normal;font-weight:normal;font-stretch:normal;font-size:5.64444447px;font-family:'Ubuntu Mono';-inkscape-font-specification:'Ubuntu Mono';fill:#00b1ec;fill-opacity:1;stroke-width:0.07000425"
           id="path296"
           inkscape:connector-curvature="0" />
        <path
           d="m 45.105301,35.074316 q 0.1524,0.112889 0.344311,0.287866 0.191911,0.169334 0.378178,0.366889 0.191911,0.197556 0.361244,0.4064 0.169333,0.2032 0.270933,0.378178 h -0.553155 q -0.107245,-0.174978 -0.265289,-0.3556 -0.158045,-0.186267 -0.338667,-0.3556 -0.174978,-0.169333 -0.3556,-0.310444 -0.174978,-0.141112 -0.316089,-0.237067 v 1.258711 h -0.468489 v -3.832578 l 0.468489,-0.07902 v 2.3876 q 0.310445,-0.270933 0.620889,-0.536222 0.310445,-0.270934 0.5588,-0.5588 h 0.547511 q -0.242711,0.287866 -0.587022,0.592666 -0.338667,0.3048 -0.666044,0.587023 z"
           style="font-style:normal;font-variant:normal;font-weight:normal;font-stretch:normal;font-size:5.64444447px;font-family:'Ubuntu Mono';-inkscape-font-specification:'Ubuntu Mono';fill:#00b1ec;fill-opacity:1;stroke-width:0.07000425"
           id="path298"
           inkscape:connector-curvature="0" />
        <path
           d="m 47.763823,33.488227 q -0.146756,0 -0.254,-0.1016 -0.107244,-0.1016 -0.107244,-0.276578 0,-0.174978 0.107244,-0.276578 0.107244,-0.1016 0.254,-0.1016 0.1524,0 0.254,0.1016 0.107244,0.1016 0.107244,0.276578 0,0.174978 -0.107244,0.276578 -0.1016,0.1016 -0.254,0.1016 z m -0.118533,0.795866 h -0.756356 v -0.389466 h 1.2192 v 1.608666 q 0,0.389467 0.107245,0.524934 0.107244,0.129822 0.321733,0.129822 0.163689,0 0.299155,-0.03951 0.141112,-0.03951 0.220134,-0.08467 l 0.06773,0.395111 q -0.03387,0.01693 -0.09595,0.04516 -0.06209,0.02258 -0.146756,0.04515 -0.07902,0.02258 -0.180622,0.03951 -0.09596,0.01693 -0.2032,0.01693 -0.248356,0 -0.412045,-0.06773 -0.163689,-0.06773 -0.265289,-0.2032 -0.09596,-0.135467 -0.135466,-0.333023 -0.03951,-0.2032 -0.03951,-0.468489 z"
           style="font-style:normal;font-variant:normal;font-weight:normal;font-stretch:normal;font-size:5.64444447px;font-family:'Ubuntu Mono';-inkscape-font-specification:'Ubuntu Mono';fill:#00b1ec;fill-opacity:1;stroke-width:0.07000425"
           id="path300"
           inkscape:connector-curvature="0" />
        <path
           d="m 50.868256,33.832538 q 0.530578,0 0.818445,0.333022 0.287867,0.327378 0.287867,0.999067 v 0.163689 h -1.873956 q 0.02822,0.4064 0.265289,0.620889 0.242711,0.208844 0.677333,0.208844 0.248356,0 0.423334,-0.03951 0.174977,-0.03951 0.265288,-0.08467 l 0.06209,0.395111 q -0.08467,0.04516 -0.3048,0.09596 -0.220133,0.0508 -0.496711,0.0508 -0.338666,0 -0.598311,-0.1016 -0.254,-0.107245 -0.423333,-0.287867 -0.169334,-0.180622 -0.254,-0.428978 -0.08467,-0.254 -0.08467,-0.547511 0,-0.349955 0.107245,-0.6096 0.107244,-0.259644 0.282222,-0.428977 0.174978,-0.169334 0.395111,-0.254 0.220133,-0.08467 0.451555,-0.08467 z m 0.632178,1.1176 q 0,-0.333022 -0.174978,-0.524933 -0.174977,-0.197556 -0.462844,-0.197556 -0.163689,0 -0.299156,0.06209 -0.129822,0.06209 -0.225777,0.163689 -0.09596,0.1016 -0.1524,0.231422 -0.05645,0.129822 -0.07338,0.265289 z"
           style="font-style:normal;font-variant:normal;font-weight:normal;font-stretch:normal;font-size:5.64444447px;font-family:'Ubuntu Mono';-inkscape-font-specification:'Ubuntu Mono';fill:#00b1ec;fill-opacity:1;stroke-width:0.07000425"
           id="path302"
           inkscape:connector-curvature="0" />
        <path
           d="m 52.505135,35.209782 q 0,-0.3556 0.112889,-0.615244 0.112889,-0.259645 0.310445,-0.428978 0.197555,-0.169333 0.4572,-0.248355 0.265289,-0.08467 0.564444,-0.08467 0.191911,0 0.378178,0.02822 0.191911,0.02258 0.4064,0.09031 l -0.107245,0.400756 q -0.186266,-0.06773 -0.344311,-0.08467 -0.1524,-0.02258 -0.310444,-0.02258 -0.2032,0 -0.383822,0.05644 -0.180623,0.0508 -0.316089,0.169333 -0.129822,0.112889 -0.208845,0.299156 -0.07902,0.180622 -0.07902,0.440266 0,0.248356 0.07338,0.428978 0.07338,0.174978 0.2032,0.293511 0.135467,0.112889 0.321733,0.169334 0.186267,0.05644 0.412045,0.05644 0.180622,0 0.344311,-0.01693 0.169333,-0.02258 0.366889,-0.09031 l 0.06773,0.389466 q -0.197556,0.07338 -0.400756,0.1016 -0.2032,0.03387 -0.440266,0.03387 -0.316089,0 -0.581378,-0.08467 -0.259644,-0.09031 -0.451556,-0.259644 -0.186266,-0.169334 -0.293511,-0.423334 -0.1016,-0.259644 -0.1016,-0.598311 z"
           style="font-style:normal;font-variant:normal;font-weight:normal;font-stretch:normal;font-size:5.64444447px;font-family:'Ubuntu Mono';-inkscape-font-specification:'Ubuntu Mono';fill:#00b1ec;fill-opacity:1;stroke-width:0.07000425"
           id="path304"
           inkscape:connector-curvature="0" />
        <path
           d="m 57.472235,36.440271 q -0.1524,0.03951 -0.4064,0.08467 -0.248356,0.04516 -0.587023,0.04516 -0.299155,0 -0.496711,-0.08467 -0.197555,-0.09031 -0.321733,-0.248356 -0.124178,-0.163689 -0.174978,-0.383822 -0.0508,-0.220133 -0.0508,-0.485422 v -1.4732 h 0.462845 v 1.3716 q 0,0.485422 0.141111,0.688622 0.146755,0.2032 0.485422,0.2032 0.07338,0 0.146755,-0.0056 0.07902,-0.0056 0.146756,-0.01129 0.06773,-0.01129 0.118533,-0.01693 0.0508,-0.01129 0.06773,-0.01693 v -2.212622 h 0.468489 z"
           style="font-style:normal;font-variant:normal;font-weight:normal;font-stretch:normal;font-size:5.64444447px;font-family:'Ubuntu Mono';-inkscape-font-specification:'Ubuntu Mono';fill:#00b1ec;fill-opacity:1;stroke-width:0.07000425"
           id="path306"
           inkscape:connector-curvature="0" />
        <path
           d="m 59.24458,33.894627 h 1.106311 v 0.389466 H 59.24458 v 1.2192 q 0,0.197556 0.02822,0.321734 0.02822,0.124178 0.09031,0.2032 0.06773,0.07338 0.169334,0.1016 0.1016,0.02822 0.248355,0.02822 0.2032,0 0.327378,-0.03387 0.124178,-0.03387 0.237067,-0.09031 l 0.06773,0.395111 q -0.07902,0.03387 -0.254,0.09031 -0.169333,0.05645 -0.423333,0.05645 -0.293511,0 -0.479778,-0.06773 -0.186267,-0.06773 -0.293511,-0.2032 -0.1016,-0.135467 -0.141111,-0.333023 -0.03951,-0.2032 -0.03951,-0.468489 v -1.2192 H 58.22858 V 33.89463 h 0.553156 v -0.733778 l 0.462844,-0.07902 z"
           style="font-style:normal;font-variant:normal;font-weight:normal;font-stretch:normal;font-size:5.64444447px;font-family:'Ubuntu Mono';-inkscape-font-specification:'Ubuntu Mono';fill:#00b1ec;fill-opacity:1;stroke-width:0.07000425"
           id="path308"
           inkscape:connector-curvature="0" />
        <path
           d="m 62.066792,33.894627 h 1.106311 v 0.389466 h -1.106311 v 1.2192 q 0,0.197556 0.02822,0.321734 0.02822,0.124178 0.09031,0.2032 0.06773,0.07338 0.169333,0.1016 0.1016,0.02822 0.248356,0.02822 0.2032,0 0.327377,-0.03387 0.124178,-0.03387 0.237067,-0.09031 l 0.06773,0.395111 q -0.07902,0.03387 -0.254,0.09031 -0.169333,0.05645 -0.423333,0.05645 -0.293511,0 -0.479778,-0.06773 -0.186266,-0.06773 -0.293511,-0.2032 -0.1016,-0.135467 -0.141111,-0.333023 -0.03951,-0.2032 -0.03951,-0.468489 v -1.2192 H 61.050786 V 33.89463 h 0.553156 v -0.733778 l 0.462844,-0.07902 z"
           style="font-style:normal;font-variant:normal;font-weight:normal;font-stretch:normal;font-size:5.64444447px;font-family:'Ubuntu Mono';-inkscape-font-specification:'Ubuntu Mono';fill:#00b1ec;fill-opacity:1;stroke-width:0.07000425"
           id="path310"
           inkscape:connector-curvature="0" />
        <path
           d="m 64.979314,33.832538 q 0.530578,0 0.818444,0.333022 0.287867,0.327378 0.287867,0.999067 v 0.163689 h -1.873956 q 0.02822,0.4064 0.265289,0.620889 0.242711,0.208844 0.677334,0.208844 0.248355,0 0.423333,-0.03951 0.174978,-0.03951 0.265289,-0.08467 l 0.06209,0.395111 q -0.08467,0.04516 -0.3048,0.09596 -0.220134,0.0508 -0.496711,0.0508 -0.338667,0 -0.598312,-0.1016 -0.254,-0.107245 -0.423333,-0.287867 -0.169333,-0.180622 -0.254,-0.428978 -0.08467,-0.254 -0.08467,-0.547511 0,-0.349955 0.107245,-0.6096 0.107244,-0.259644 0.282222,-0.428977 0.174978,-0.169334 0.395111,-0.254 0.220134,-0.08467 0.451556,-0.08467 z m 0.632178,1.1176 q 0,-0.333022 -0.174978,-0.524933 -0.174978,-0.197556 -0.462845,-0.197556 -0.163689,0 -0.299155,0.06209 -0.129822,0.06209 -0.225778,0.163689 -0.09596,0.1016 -0.1524,0.231422 -0.05644,0.129822 -0.07338,0.265289 z"
           style="font-style:normal;font-variant:normal;font-weight:normal;font-stretch:normal;font-size:5.64444447px;font-family:'Ubuntu Mono';-inkscape-font-specification:'Ubuntu Mono';fill:#00b1ec;fill-opacity:1;stroke-width:0.07000425"
           id="path312"
           inkscape:connector-curvature="0" />
        <path
           d="m 66.94357,36.513649 v -2.477911 q 0.575734,-0.197556 1.162756,-0.197556 0.180622,0 0.344311,0.01693 0.163689,0.01129 0.361245,0.05644 l -0.08467,0.412045 q -0.180622,-0.0508 -0.321733,-0.06209 -0.135467,-0.01693 -0.299156,-0.01693 -0.344311,0 -0.699911,0.09596 v 2.173111 z"
           style="font-style:normal;font-variant:normal;font-weight:normal;font-stretch:normal;font-size:5.64444447px;font-family:'Ubuntu Mono';-inkscape-font-specification:'Ubuntu Mono';fill:#00b1ec;fill-opacity:1;stroke-width:0.07000425"
           id="path314"
           inkscape:connector-curvature="0" />
        <path
           d="m 69.952049,34.859827 h 1.241778 v 0.440266 h -1.241778 z"
           style="font-style:normal;font-variant:normal;font-weight:normal;font-stretch:normal;font-size:5.64444447px;font-family:'Ubuntu Mono';-inkscape-font-specification:'Ubuntu Mono';fill:#00b1ec;fill-opacity:1;stroke-width:0.07000425"
           id="path316"
           inkscape:connector-curvature="0" />
        <path
           d="m 72.260617,35.209782 q 0,-0.3556 0.112889,-0.615244 0.112889,-0.259645 0.310444,-0.428978 0.197556,-0.169333 0.4572,-0.248355 0.265289,-0.08467 0.564445,-0.08467 0.191911,0 0.378178,0.02822 0.191911,0.02258 0.4064,0.09031 l -0.107245,0.400756 q -0.186266,-0.06773 -0.344311,-0.08467 -0.1524,-0.02258 -0.310444,-0.02258 -0.2032,0 -0.383823,0.05644 -0.180622,0.0508 -0.316088,0.169333 -0.129823,0.112889 -0.208845,0.299156 -0.07902,0.180622 -0.07902,0.440266 0,0.248356 0.07338,0.428978 0.07338,0.174978 0.2032,0.293511 0.135466,0.112889 0.321733,0.169334 0.186267,0.05644 0.412044,0.05644 0.180623,0 0.344312,-0.01693 0.169333,-0.02258 0.366888,-0.09031 l 0.06773,0.389466 q -0.197556,0.07338 -0.400756,0.1016 -0.2032,0.03387 -0.440266,0.03387 -0.316089,0 -0.581378,-0.08467 -0.259645,-0.09031 -0.451556,-0.259644 -0.186266,-0.169334 -0.293511,-0.423334 -0.1016,-0.259644 -0.1016,-0.598311 z"
           style="font-style:normal;font-variant:normal;font-weight:normal;font-stretch:normal;font-size:5.64444447px;font-family:'Ubuntu Mono';-inkscape-font-specification:'Ubuntu Mono';fill:#00b1ec;fill-opacity:1;stroke-width:0.07000425"
           id="path318"
           inkscape:connector-curvature="0" />
        <path
           d="m 76.922914,35.209782 q 0,-0.4572 -0.214489,-0.705555 -0.214488,-0.254 -0.5588,-0.254 -0.191911,0 -0.3048,0.01693 -0.107244,0.01693 -0.169333,0.03951 v 1.653822 q 0.07902,0.07338 0.231422,0.135467 0.1524,0.06209 0.316089,0.06209 0.186267,0 0.316089,-0.07338 0.135467,-0.07338 0.220133,-0.197555 0.08467,-0.129823 0.124178,-0.299156 0.03951,-0.174978 0.03951,-0.378178 z m 0.479778,0 q 0,0.299156 -0.07902,0.553156 -0.07338,0.248355 -0.220133,0.428978 -0.141112,0.180622 -0.349956,0.282222 -0.208844,0.1016 -0.474133,0.1016 -0.208845,0 -0.366889,-0.0508 -0.158045,-0.0508 -0.237067,-0.112889 v 1.032933 h -0.468489 v -3.471333 q 0.1524,-0.04516 0.389467,-0.09031 0.242711,-0.04516 0.553155,-0.04516 0.282223,0 0.513645,0.09596 0.231422,0.09596 0.395111,0.276578 0.163689,0.174977 0.254,0.428977 0.09031,0.254 0.09031,0.570089 z"
           style="font-style:normal;font-variant:normal;font-weight:normal;font-stretch:normal;font-size:5.64444447px;font-family:'Ubuntu Mono';-inkscape-font-specification:'Ubuntu Mono';fill:#00b1ec;fill-opacity:1;stroke-width:0.07000425"
           id="path320"
           inkscape:connector-curvature="0" />
        <path
           d="m 79.745127,35.209782 q 0,-0.4572 -0.214489,-0.705555 -0.214489,-0.254 -0.5588,-0.254 -0.191911,0 -0.3048,0.01693 -0.107245,0.01693 -0.169334,0.03951 v 1.653822 q 0.07902,0.07338 0.231423,0.135467 0.1524,0.06209 0.316088,0.06209 0.186267,0 0.316089,-0.07338 0.135467,-0.07338 0.220134,-0.197555 0.08467,-0.129823 0.124177,-0.299156 0.03951,-0.174978 0.03951,-0.378178 z m 0.479777,0 q 0,0.299156 -0.07902,0.553156 -0.07338,0.248355 -0.220133,0.428978 -0.141111,0.180622 -0.349956,0.282222 -0.208844,0.1016 -0.474133,0.1016 -0.208845,0 -0.366889,-0.0508 -0.158044,-0.0508 -0.237067,-0.112889 v 1.032933 h -0.468489 v -3.471333 q 0.1524,-0.04516 0.389467,-0.09031 0.242711,-0.04516 0.553156,-0.04516 0.282222,0 0.513644,0.09596 0.231422,0.09596 0.395111,0.276578 0.163689,0.174977 0.254,0.428977 0.09031,0.254 0.09031,0.570089 z"
           style="font-style:normal;font-variant:normal;font-weight:normal;font-stretch:normal;font-size:5.64444447px;font-family:'Ubuntu Mono';-inkscape-font-specification:'Ubuntu Mono';fill:#00b1ec;fill-opacity:1;stroke-width:0.07000425"
           id="path322"
           inkscape:connector-curvature="0" />
        <path
           d="m 81.240894,34.859827 h 1.241778 v 0.440266 h -1.241778 z"
           style="font-style:normal;font-variant:normal;font-weight:normal;font-stretch:normal;font-size:5.64444447px;font-family:'Ubuntu Mono';-inkscape-font-specification:'Ubuntu Mono';fill:#00b1ec;fill-opacity:1;stroke-width:0.07000425"
           id="path324"
           inkscape:connector-curvature="0" />
        <path
           d="m 83.549462,35.209782 q 0,-0.3556 0.112889,-0.615244 0.112889,-0.259645 0.310444,-0.428978 0.197556,-0.169333 0.4572,-0.248355 0.265289,-0.08467 0.564445,-0.08467 0.191911,0 0.378178,0.02822 0.191911,0.02258 0.4064,0.09031 l -0.107245,0.400756 q -0.186266,-0.06773 -0.344311,-0.08467 -0.1524,-0.02258 -0.310444,-0.02258 -0.2032,0 -0.383823,0.05644 -0.180622,0.0508 -0.316088,0.169333 -0.129823,0.112889 -0.208845,0.299156 -0.07902,0.180622 -0.07902,0.440266 0,0.248356 0.07338,0.428978 0.07338,0.174978 0.2032,0.293511 0.135466,0.112889 0.321733,0.169334 0.186267,0.05644 0.412044,0.05644 0.180623,0 0.344312,-0.01693 0.169333,-0.02258 0.366888,-0.09031 l 0.06773,0.389466 q -0.197556,0.07338 -0.400756,0.1016 -0.2032,0.03387 -0.440266,0.03387 -0.316089,0 -0.581378,-0.08467 -0.259645,-0.09031 -0.451556,-0.259644 -0.186266,-0.169334 -0.293511,-0.423334 -0.1016,-0.259644 -0.1016,-0.598311 z"
           style="font-style:normal;font-variant:normal;font-weight:normal;font-stretch:normal;font-size:5.64444447px;font-family:'Ubuntu Mono';-inkscape-font-specification:'Ubuntu Mono';fill:#00b1ec;fill-opacity:1;stroke-width:0.07000425"
           id="path326"
           inkscape:connector-curvature="0" />
        <path
           d="m 86.326519,33.968005 q 0.338666,-0.129823 0.637822,-0.129823 0.163689,0 0.3048,0.0508 0.146756,0.04516 0.248356,0.146756 0.242711,-0.197556 0.519288,-0.197556 0.135467,0 0.254,0.0508 0.124178,0.0508 0.214489,0.1524 0.09596,0.1016 0.1524,0.254 0.05644,0.1524 0.05644,0.3556 v 1.862667 H 88.29078 v -1.873956 q 0,-0.2032 -0.09031,-0.310444 -0.09031,-0.107244 -0.225777,-0.107244 -0.06773,0 -0.141112,0.03387 -0.07338,0.03387 -0.135466,0.107245 0.03387,0.129822 0.03387,0.287866 v 0.852311 h -0.423333 v -0.857955 q 0,-0.197556 -0.06209,-0.310445 -0.06209,-0.112888 -0.242711,-0.112888 -0.112889,0 -0.254,0.0508 v 2.240844 h -0.423333 z"
           style="font-style:normal;font-variant:normal;font-weight:normal;font-stretch:normal;font-size:5.64444447px;font-family:'Ubuntu Mono';-inkscape-font-specification:'Ubuntu Mono';fill:#00b1ec;fill-opacity:1;stroke-width:0.07000425"
           id="path328"
           inkscape:connector-curvature="0" />
        <path
           d="m 90.356638,36.180627 q 0.174978,0 0.310445,-0.01129 0.141111,-0.01129 0.231422,-0.02822 v -0.778934 q -0.09031,-0.02822 -0.220133,-0.04515 -0.124178,-0.01693 -0.265289,-0.01693 -0.129822,0 -0.254,0.02258 -0.124178,0.01693 -0.220134,0.06773 -0.09595,0.0508 -0.158044,0.135466 -0.06209,0.07902 -0.06209,0.2032 0,0.254 0.169333,0.3556 0.174978,0.09596 0.468489,0.09596 z m -0.04516,-2.348089 q 0.293511,0 0.491066,0.07338 0.2032,0.07338 0.327378,0.2032 0.124178,0.129822 0.174978,0.316089 0.0508,0.186266 0.0508,0.4064 v 1.636888 q -0.163689,0.02822 -0.434622,0.06773 -0.265289,0.03951 -0.547511,0.03951 -0.214489,0 -0.417689,-0.03951 -0.2032,-0.03387 -0.361245,-0.124178 -0.158044,-0.09596 -0.254,-0.259644 -0.09596,-0.163689 -0.09596,-0.417689 0,-0.225778 0.09596,-0.378178 0.1016,-0.158045 0.254,-0.254 0.158045,-0.09596 0.3556,-0.135467 0.2032,-0.04515 0.4064,-0.04515 0.276578,0 0.541867,0.06209 v -0.129823 q 0,-0.118533 -0.02822,-0.225777 -0.02258,-0.112889 -0.09596,-0.2032 -0.06773,-0.09031 -0.191911,-0.141112 -0.118533,-0.05644 -0.310444,-0.05644 -0.242711,0 -0.423334,0.03387 -0.180622,0.03387 -0.276577,0.06773 l -0.05645,-0.383822 q 0.09596,-0.04516 0.316089,-0.07902 0.225778,-0.03387 0.479778,-0.03387 z"
           style="font-style:normal;font-variant:normal;font-weight:normal;font-stretch:normal;font-size:5.64444447px;font-family:'Ubuntu Mono';-inkscape-font-specification:'Ubuntu Mono';fill:#00b1ec;fill-opacity:1;stroke-width:0.07000425"
           id="path330"
           inkscape:connector-curvature="0" />
        <path
           d="m 93.082895,35.074316 q 0.1524,0.112889 0.344311,0.287866 0.191911,0.169334 0.378178,0.366889 0.191911,0.197556 0.361244,0.4064 0.169334,0.2032 0.270934,0.378178 h -0.553156 q -0.107244,-0.174978 -0.265289,-0.3556 -0.158044,-0.186267 -0.338666,-0.3556 -0.174978,-0.169333 -0.3556,-0.310444 -0.174978,-0.141112 -0.316089,-0.237067 v 1.258711 h -0.468489 v -3.832578 l 0.468489,-0.07902 v 2.3876 q 0.310444,-0.270933 0.620889,-0.536222 0.310444,-0.270934 0.5588,-0.5588 h 0.547511 q -0.242711,0.287866 -0.587023,0.592666 -0.338666,0.3048 -0.666044,0.587023 z"
           style="font-style:normal;font-variant:normal;font-weight:normal;font-stretch:normal;font-size:5.64444447px;font-family:'Ubuntu Mono';-inkscape-font-specification:'Ubuntu Mono';fill:#00b1ec;fill-opacity:1;stroke-width:0.07000425"
           id="path332"
           inkscape:connector-curvature="0" />
        <path
           d="m 96.023641,33.832538 q 0.530577,0 0.818444,0.333022 0.287867,0.327378 0.287867,0.999067 v 0.163689 h -1.873956 q 0.02822,0.4064 0.265289,0.620889 0.242711,0.208844 0.677333,0.208844 0.248356,0 0.423334,-0.03951 0.174977,-0.03951 0.265289,-0.08467 l 0.06209,0.395111 q -0.08467,0.04516 -0.3048,0.09596 -0.220133,0.0508 -0.496711,0.0508 -0.338666,0 -0.598311,-0.1016 -0.254,-0.107245 -0.423333,-0.287867 -0.169333,-0.180622 -0.254,-0.428978 -0.08467,-0.254 -0.08467,-0.547511 0,-0.349955 0.107245,-0.6096 0.107244,-0.259644 0.282222,-0.428977 0.174978,-0.169334 0.395111,-0.254 0.220133,-0.08467 0.451556,-0.08467 z m 0.632177,1.1176 q 0,-0.333022 -0.174977,-0.524933 -0.174978,-0.197556 -0.462845,-0.197556 -0.163689,0 -0.299155,0.06209 -0.129823,0.06209 -0.225778,0.163689 -0.09596,0.1016 -0.1524,0.231422 -0.05645,0.129822 -0.07338,0.265289 z"
           style="font-style:normal;font-variant:normal;font-weight:normal;font-stretch:normal;font-size:5.64444447px;font-family:'Ubuntu Mono';-inkscape-font-specification:'Ubuntu Mono';fill:#00b1ec;fill-opacity:1;stroke-width:0.07000425"
           id="path334"
           inkscape:connector-curvature="0" />
      </g>
    </g>
  </g>
</svg>
