<?xml version="1.0" encoding="UTF-8" standalone="no"?>
<!-- Created with Inkscape (http://www.inkscape.org/) -->

<svg
   width="25.805325mm"
   height="21.70376mm"
   viewBox="0 0 25.805325 21.70376"
   version="1.1"
   id="svg5"
   inkscape:version="1.1 (c68e22c387, 2021-05-23)"
   sodipodi:docname="logo.svg"
   xmlns:inkscape="http://www.inkscape.org/namespaces/inkscape"
   xmlns:sodipodi="http://sodipodi.sourceforge.net/DTD/sodipodi-0.dtd"
   xmlns="http://www.w3.org/2000/svg"
   xmlns:svg="http://www.w3.org/2000/svg">
  <sodipodi:namedview
     id="namedview7"
     pagecolor="#ffffff"
     bordercolor="#666666"
     borderopacity="1.0"
     inkscape:pageshadow="2"
     inkscape:pageopacity="0.0"
     inkscape:pagecheckerboard="true"
     inkscape:document-units="mm"
     showgrid="false"
     inkscape:zoom="5.9295174"
     inkscape:cx="73.446112"
     inkscape:cy="40.391146"
     inkscape:window-width="1920"
     inkscape:window-height="1017"
     inkscape:window-x="-8"
     inkscape:window-y="-8"
     inkscape:window-maximized="1"
     inkscape:current-layer="layer1"
     borderlayer="false"
     showborder="true"
     fit-margin-top="0"
     fit-margin-left="0"
     fit-margin-right="0"
     fit-margin-bottom="0" />
  <defs
     id="defs2" />
  <g
     inkscape:label="Layer 1"
     inkscape:groupmode="layer"
     id="layer1"
     transform="translate(-18.026806,-21.369238)">
    <path
       id="path31"
       style="fill:#d38d5f;fill-opacity:1;fill-rule:evenodd;stroke-width:0.999999"
       d="m 105.47656,80.765625 a 39.463579,39.463579 0 0 0 -37.343748,39.312495 39.463579,39.463579 0 0 0 39.464848,39.4629 39.463579,39.463579 0 0 0 39.43164,-39.03321 19.900438,17.876666 0 0 1 -5.02735,0.58203 19.900438,17.876666 0 0 1 -19.90039,-17.87695 19.900438,17.876666 0 0 1 0.38672,-3.447265 16.021539,11.130754 24.954431 0 1 -7.27539,-1.976563 16.021539,11.130754 24.954431 0 1 -9.83008,-16.851562 16.021539,11.130754 24.954431 0 1 0.0937,-0.171875 z"
       transform="scale(0.26458333)" />
    <path
       id="path31-9"
       style="fill:#deaa87;fill-opacity:1;fill-rule:evenodd;stroke-width:0.958541"
       d="m 105.47461,80.769531 a 36.259269,39.463579 0 0 0 -30.595704,38.970699 36.259269,39.463579 0 0 0 36.259764,39.46289 36.259269,39.463579 0 0 0 36.23633,-38.77929 19.900438,17.876666 0 0 1 -5.37305,0.66601 19.900438,17.876666 0 0 1 -19.90039,-17.87695 19.900438,17.876666 0 0 1 0.38672,-3.447265 16.021539,11.130754 24.954431 0 1 -7.27539,-1.976563 16.021539,11.130754 24.954431 0 1 -9.83008,-16.851562 16.021539,11.130754 24.954431 0 1 0.0918,-0.167969 z"
       transform="scale(0.26458333)" />
    <path
       sodipodi:type="star"
       style="fill:#784421;fill-opacity:1"
       id="path1228"
       inkscape:flatsided="true"
       sodipodi:sides="5"
       sodipodi:cx="90.395218"
       sodipodi:cy="98.490311"
       sodipodi:r1="4.5877161"
       sodipodi:r2="3.71154"
       sodipodi:arg1="2.8430937"
       sodipodi:arg2="3.4714123"
       inkscape:rounded="0"
       inkscape:randomized="0"
       d="m 86.010375,99.839493 1.746703,-5.102495 5.392523,0.08446 1.586059,5.154692 -4.412284,3.101315 z"
       transform="scale(0.26458333)"
       inkscape:transform-center-x="0.0058741752"
       inkscape:transform-center-y="0.11030982" />
    <path
       sodipodi:type="star"
       style="fill:#a05a2c;fill-opacity:1"
       id="path1274"
       inkscape:flatsided="true"
       sodipodi:sides="5"
       sodipodi:cx="106.9227"
       sodipodi:cy="124.79936"
       sodipodi:r1="6.3012013"
       sodipodi:r2="5.0977788"
       sodipodi:arg1="-0.27094685"
       sodipodi:arg2="0.35737168"
       inkscape:rounded="0"
       inkscape:randomized="0"
       d="m 112.99402,123.11288 -2.59124,6.9395 -7.4006,-0.32 -1.98257,-7.13726 6.17529,-4.09108 z"
       transform="matrix(0.26458333,0,0,0.26458333,1.695613,2.1418269)"
       inkscape:transform-center-x="-0.02225536"
       inkscape:transform-center-y="-0.13788811" />
    <path
       sodipodi:type="star"
       style="fill:#784421;fill-opacity:1"
       id="path1320"
       inkscape:flatsided="true"
       sodipodi:sides="5"
       sodipodi:cx="120.07723"
       sodipodi:cy="100.51408"
       sodipodi:r1="5.4491768"
       sodipodi:r2="4.4084768"
       sodipodi:arg1="0.38050638"
       sodipodi:arg2="1.0088249"
       inkscape:rounded="0"
       inkscape:randomized="0"
       d="m 125.13667,102.53785 -5.42071,3.41341 -4.92144,-4.10059 2.37909,-5.947721 6.3918,0.4247 z"
       transform="matrix(0.26458333,0,0,0.26458333,-7.6748798,5.7115385)"
       inkscape:transform-center-x="0.029538265"
       inkscape:transform-center-y="0.10928054" />
    <path
       sodipodi:type="star"
       style="fill:#a05a2c;fill-opacity:1"
       id="path1740"
       inkscape:flatsided="true"
       sodipodi:sides="5"
       sodipodi:cx="105.23622"
       sodipodi:cy="105.23622"
       sodipodi:r1="3.7710793"
       sodipodi:r2="3.0508673"
       sodipodi:arg1="1.3089969"
       sodipodi:arg2="1.9373155"
       inkscape:rounded="0"
       inkscape:randomized="0"
       d="m 106.21225,108.8788 -4.13872,-1.5887 0.23201,-4.4271 4.28212,-1.14738 2.41447,3.71796 z"
       transform="scale(0.26458333)"
       inkscape:transform-center-x="-0.079800354"
       inkscape:transform-center-y="0.016136198" />
    <path
       sodipodi:type="star"
       style="fill:#502d16;fill-opacity:1"
       id="path1767"
       inkscape:flatsided="true"
       sodipodi:sides="5"
       sodipodi:cx="95.791946"
       sodipodi:cy="143.68793"
       sodipodi:r1="5.0594339"
       sodipodi:r2="4.0931678"
       sodipodi:arg1="0.64350111"
       sodipodi:arg2="1.2718196"
       inkscape:rounded="0"
       inkscape:randomized="0"
       d="m 99.839494,146.72359 -5.683871,1.75185 -3.422527,-4.86433 3.568632,-4.75817 5.628064,1.92361 z"
       transform="scale(0.26458333)"
       inkscape:transform-center-x="0.12184165"
       inkscape:transform-center-y="-0.0062807095" />
    <path
       sodipodi:type="star"
       style="fill:#502d16;fill-opacity:1"
       id="path1791"
       inkscape:flatsided="true"
       sodipodi:sides="5"
       sodipodi:cx="127.49773"
       sodipodi:cy="122.77559"
       sodipodi:r1="4.8645458"
       sodipodi:r2="3.9355004"
       sodipodi:arg1="0.5880026"
       sodipodi:arg2="1.2163211"
       inkscape:rounded="0"
       inkscape:randomized="0"
       d="m 131.54527,125.47395 -5.36308,1.98493 -3.54506,-4.48723 3.17212,-4.75817 5.50553,1.5465 z"
       transform="scale(0.26458333)"
       inkscape:transform-center-x="0.10755967"
       inkscape:transform-center-y="0.016030057" />
    <path
       sodipodi:type="star"
       style="fill:#a05a2c;fill-opacity:1"
       id="path1793"
       inkscape:flatsided="true"
       sodipodi:sides="5"
       sodipodi:cx="126.48584"
       sodipodi:cy="140.98955"
       sodipodi:r1="2.4322729"
       sodipodi:r2="1.9677502"
       sodipodi:arg1="0.5880026"
       sodipodi:arg2="1.2163211"
       inkscape:rounded="0"
       inkscape:randomized="0"
       d="m 128.50961,142.33873 -2.68154,0.99246 -1.77253,-2.24361 1.58606,-2.37909 2.75277,0.77326 z"
       transform="scale(0.26458333)"
       inkscape:transform-center-x="0.053780043"
       inkscape:transform-center-y="0.0080147632" />
    <path
       id="path1817"
       style="fill:#a05a2c;fill-opacity:1"
       inkscape:transform-center-x="0.13003616"
       inkscape:transform-center-y="-0.052995359"
       d="m 116.53711,98.351562 -1.91602,2.189458 4.31836,7.24023 3.62305,-0.82422 a 19.900438,17.876666 0 0 1 -0.46094,-3.74414 19.900438,17.876666 0 0 1 0.38672,-3.447265 16.021539,11.130754 24.954431 0 1 -5.95117,-1.414063 z"
       transform="scale(0.26458333)" />
    <g
       aria-label="Cpp"
       id="text1979"
       style="font-size:5.64444px;line-height:1.25;font-family:Arial;-inkscape-font-specification:Arial;stroke-width:0.264583"
       transform="translate(-0.98167067)">
      <path
         d="m 35.957682,42.023133 c 0.908755,0 1.682043,-0.575733 1.902176,-1.399821 0.02258,-0.09031 -0.02822,-0.146756 -0.124178,-0.146756 h -0.666044 c -0.07902,0 -0.124177,0.03951 -0.158044,0.112889 -0.158044,0.344311 -0.524933,0.553155 -0.95391,0.553155 -0.699911,0 -1.151466,-0.468488 -1.151466,-1.174043 0,-0.705555 0.451555,-1.174044 1.151466,-1.174044 0.428977,0 0.795866,0.208845 0.95391,0.553155 0.03387,0.07338 0.07902,0.112889 0.158044,0.112889 h 0.666044 c 0.09596,0 0.146756,-0.06209 0.124178,-0.158044 -0.231422,-0.824088 -0.999066,-1.388532 -1.902176,-1.388532 -1.190977,0 -2.054577,0.891821 -2.054577,2.054576 0,1.162754 0.8636,2.054576 2.054577,2.054576 z"
         style="font-weight:800;font-family:'Qanelas Soft DEMO';-inkscape-font-specification:'Qanelas Soft DEMO Ultra-Bold';fill:#00b1ec"
         id="path41313" />
      <path
         d="m 39.948299,39.042869 c -0.378177,0 -0.654755,0.129822 -0.841021,0.34431 v -0.124177 c 0,-0.09031 -0.0508,-0.141111 -0.141111,-0.141111 h -0.564444 c -0.09031,0 -0.141111,0.0508 -0.141111,0.141111 v 3.668886 c 0,0.09031 0.0508,0.141111 0.141111,0.141111 h 0.564444 c 0.09031,0 0.141111,-0.0508 0.141111,-0.141111 v -1.247421 c 0.186266,0.214488 0.462844,0.338666 0.841021,0.338666 0.739422,0 1.349022,-0.649111 1.349022,-1.490132 0,-0.841022 -0.6096,-1.490132 -1.349022,-1.490132 z m -0.169333,2.178754 c -0.389466,0 -0.671688,-0.265289 -0.671688,-0.688622 0,-0.423333 0.282222,-0.688622 0.671688,-0.688622 0.389467,0 0.671689,0.265289 0.671689,0.688622 0,0.423333 -0.282222,0.688622 -0.671689,0.688622 z"
         style="font-weight:800;font-family:'Qanelas Soft DEMO';-inkscape-font-specification:'Qanelas Soft DEMO Ultra-Bold';fill:#00b1ec"
         id="path41315" />
      <path
         d="m 43.464781,39.042869 c -0.378178,0 -0.654755,0.129822 -0.841022,0.34431 v -0.124177 c 0,-0.09031 -0.0508,-0.141111 -0.141111,-0.141111 h -0.564444 c -0.09031,0 -0.141111,0.0508 -0.141111,0.141111 v 3.668886 c 0,0.09031 0.0508,0.141111 0.141111,0.141111 h 0.564444 c 0.09031,0 0.141111,-0.0508 0.141111,-0.141111 v -1.247421 c 0.186267,0.214488 0.462844,0.338666 0.841022,0.338666 0.739422,0 1.349021,-0.649111 1.349021,-1.490132 0,-0.841022 -0.609599,-1.490132 -1.349021,-1.490132 z m -0.169333,2.178754 c -0.389467,0 -0.671689,-0.265289 -0.671689,-0.688622 0,-0.423333 0.282222,-0.688622 0.671689,-0.688622 0.389466,0 0.671688,0.265289 0.671688,0.688622 0,0.423333 -0.282222,0.688622 -0.671688,0.688622 z"
         style="font-weight:800;font-family:'Qanelas Soft DEMO';-inkscape-font-specification:'Qanelas Soft DEMO Ultra-Bold';fill:#00b1ec"
         id="path41317" />
    </g>
  </g>
</svg>
